<svg width="182" height="36" viewBox="0 0 182 36" fill="none" xmlns="http://www.w3.org/2000/svg">
<path d="M13.5 0.866025C14.4282 0.330127 15.5718 0.330127 16.5 0.866025L26.4904 6.63397C27.4186 7.16987 27.9904 8.16025 27.9904 9.23205V20.768C27.9904 21.8397 27.4186 22.8301 26.4904 23.366L16.5 29.134C15.5718 29.6699 14.4282 29.6699 13.5 29.134L3.50962 23.366C2.58142 22.8301 2.00962 21.8397 2.00962 20.768V9.23205C2.00962 8.16025 2.58142 7.16987 3.50962 6.63397L13.5 0.866025Z" fill="#67B044"/>
<path d="M13.5 0.866025C14.4282 0.330127 15.5718 0.330127 16.5 0.866025L26.4904 6.63397C27.4186 7.16987 27.9904 8.16025 27.9904 9.23205V20.768C27.9904 21.8397 27.4186 22.8301 26.4904 23.366L16.5 29.134C15.5718 29.6699 14.4282 29.6699 13.5 29.134L3.50962 23.366C2.58142 22.8301 2.00962 21.8397 2.00962 20.768V9.23205C2.00962 8.16025 2.58142 7.16987 3.50962 6.63397L13.5 0.866025Z" fill="white" fill-opacity="0.4"/>
<path d="M21.0002 13C16.5894 13 13 16.5268 13 20.859C13 23.1679 14.0258 25.2404 15.6457 26.6796V34.3542C15.6462 34.5889 15.776 34.8049 15.9848 34.9186C16.1936 35.0326 16.449 35.0264 16.6519 34.9028L21 32.2523L25.3532 34.9028C25.5562 35.0264 25.8115 35.0326 26.0204 34.9186C26.2292 34.8049 26.359 34.5889 26.3595 34.3542V26.6759C27.9766 25.237 29 23.1657 29 20.859C29 16.5266 25.4108 13 20.9998 13H21.0002ZM21.0002 14.2943C24.6988 14.2943 27.6827 17.2263 27.6827 20.859C27.6827 24.4918 24.699 27.4229 21.0002 27.4229C17.3014 27.4229 14.3177 24.4922 14.3177 20.859C14.3177 17.2259 17.3014 14.2943 21.0002 14.2943ZM20.959 16.1775C20.693 16.1942 20.4632 16.3646 20.3761 16.6098L19.559 18.9013L17.0703 18.9506C16.7894 18.9571 16.5435 19.1355 16.4567 19.3957C16.3697 19.6559 16.4611 19.9412 16.6843 20.1072L18.6672 21.5733L17.9479 23.8939C17.8679 24.1559 17.9663 24.4387 18.1935 24.5992C18.4205 24.7599 18.727 24.7634 18.958 24.6081L21.0002 23.2241L23.0436 24.6081C23.2747 24.7653 23.5826 24.763 23.8108 24.6019C24.0391 24.441 24.1376 24.1568 24.0563 23.894L23.3358 21.5734L25.32 20.1072C25.5433 19.9411 25.6345 19.6554 25.5474 19.3952C25.4603 19.1349 25.2137 18.9566 24.9327 18.9507L22.444 18.9014L21.6269 16.6099C21.5295 16.336 21.2562 16.159 20.9591 16.1776L20.959 16.1775ZM21.0002 18.7863L21.345 19.7469C21.4362 20.0017 21.6807 20.1741 21.9576 20.1792L23.0037 20.2007L22.1686 20.8162C21.9483 20.9793 21.8553 21.2586 21.9357 21.5164L22.2381 22.4909L21.3798 21.9095C21.1524 21.7553 20.8505 21.7553 20.6232 21.9095L19.7649 22.4909L20.0673 21.5164C20.1476 21.2586 20.0546 20.9792 19.8344 20.8162L18.9992 20.2007L20.0454 20.1792C20.3224 20.1741 20.5667 20.0017 20.6579 19.7469L21.0002 18.7863ZM25.042 27.629V33.193L21.3502 30.9432C21.1373 30.8136 20.8682 30.8136 20.6553 30.9432L16.9635 33.193V27.6318C18.1503 28.317 19.5272 28.7175 21.0002 28.7175C22.4752 28.7175 23.8541 28.3161 25.042 27.6293V27.629Z" fill="#1A162E"/>
<path d="M57.416 13.36C57.416 12.288 57.048 11.36 56.312 10.608C55.592 9.856 54.488 9.472 53.032 9.472H48.6V22H50.568V17.36H52.792C54.248 17.36 55.368 16.976 56.184 16.224C57 15.456 57.416 14.496 57.416 13.36ZM52.856 11.296C53.784 11.296 54.44 11.504 54.824 11.92C55.224 12.336 55.416 12.832 55.416 13.408C55.416 14.56 54.6 15.552 52.856 15.552H50.568V11.296H52.856ZM63.8739 13.424C63.7619 13.392 63.6179 13.376 63.4099 13.376C62.3699 13.376 61.5859 13.856 61.0579 14.816V13.456H59.2019V22H61.1059V17.664C61.1059 16.176 61.8739 15.328 63.3299 15.328C63.5379 15.328 63.7139 15.344 63.8739 15.376V13.424ZM73.1516 18.288C73.1676 18.144 73.1836 17.952 73.1836 17.696C73.1836 16.368 72.8156 15.312 72.0796 14.496C71.3436 13.68 70.3196 13.28 69.0236 13.28C67.7916 13.28 66.7676 13.712 65.9516 14.576C65.1356 15.44 64.7196 16.48 64.7196 17.712C64.7196 18.976 65.1516 20.048 65.9996 20.896C66.8636 21.744 67.9356 22.16 69.1996 22.16C70.7356 22.16 72.1276 21.424 72.8476 20.096L71.4716 19.184C71.0076 20.064 70.2396 20.512 69.1676 20.512C68.5116 20.512 67.9356 20.304 67.4396 19.888C66.9436 19.456 66.6876 18.928 66.6716 18.288H73.1516ZM69.0236 14.912C70.2396 14.912 71.1836 15.648 71.2476 16.848H66.7676C66.9436 15.68 67.8556 14.912 69.0236 14.912ZM82.6434 22V17.232C82.6434 15.936 83.3634 15.072 84.5314 15.072C85.7954 15.072 86.3554 15.888 86.3554 17.184V22H88.2594V16.72C88.2594 14.672 87.2194 13.264 85.1554 13.264C83.8914 13.264 83.0594 13.712 82.1794 14.672C81.6514 13.728 80.7714 13.264 79.5394 13.264C78.5154 13.264 77.6674 13.712 76.9954 14.608V13.456H75.1394V22H77.0434V17.248C77.0434 15.952 77.7634 15.072 78.9154 15.072C80.1794 15.072 80.7554 15.92 80.7554 17.2V22H82.6434ZM90.7815 11.568C91.2775 12.064 92.0455 12.064 92.5415 11.568C93.0375 11.072 93.0375 10.304 92.5415 9.808C92.0455 9.296 91.2775 9.296 90.7815 9.808C90.2855 10.304 90.2855 11.072 90.7815 11.568ZM92.6215 13.456H90.7175V22H92.6215V13.456ZM95.0746 13.456V18.704C95.0746 20.752 96.2106 22.176 98.2746 22.176C99.3626 22.176 100.227 21.728 100.883 20.848V22H102.739V13.456H100.835V18.208C100.835 19.504 100.067 20.368 98.8666 20.368C97.6026 20.368 96.9786 19.52 96.9786 18.24V13.456H95.0746ZM112.8 22V17.232C112.8 15.936 113.52 15.072 114.688 15.072C115.952 15.072 116.512 15.888 116.512 17.184V22H118.416V16.72C118.416 14.672 117.376 13.264 115.312 13.264C114.048 13.264 113.216 13.712 112.336 14.672C111.808 13.728 110.928 13.264 109.696 13.264C108.672 13.264 107.824 13.712 107.152 14.608V13.456H105.296V22H107.2V17.248C107.2 15.952 107.92 15.072 109.072 15.072C110.336 15.072 110.912 15.92 110.912 17.2V22H112.8ZM125.413 22H130.357C133.253 22 134.805 20.608 134.805 18.496C134.805 17.888 134.629 17.296 134.261 16.736C133.893 16.176 133.285 15.744 132.421 15.472C133.333 15.072 133.925 14.208 134.101 13.632C134.181 13.328 134.229 13.04 134.229 12.768C134.229 11.744 133.861 10.944 133.125 10.352C132.389 9.76 131.413 9.472 130.197 9.472H125.413V22ZM127.365 11.248H129.941C131.541 11.248 132.26 11.936 132.26 12.976C132.26 14.016 131.445 14.768 129.829 14.768H127.365V11.248ZM127.365 16.496H130.261C131.989 16.496 132.837 17.248 132.837 18.336C132.837 19.472 131.973 20.224 130.389 20.224H127.365V16.496ZM144.699 18.288C144.715 18.144 144.731 17.952 144.731 17.696C144.731 16.368 144.363 15.312 143.627 14.496C142.891 13.68 141.867 13.28 140.571 13.28C139.339 13.28 138.315 13.712 137.499 14.576C136.683 15.44 136.267 16.48 136.267 17.712C136.267 18.976 136.699 20.048 137.547 20.896C138.411 21.744 139.483 22.16 140.747 22.16C142.283 22.16 143.675 21.424 144.395 20.096L143.019 19.184C142.555 20.064 141.787 20.512 140.715 20.512C140.059 20.512 139.483 20.304 138.987 19.888C138.491 19.456 138.235 18.928 138.219 18.288H144.699ZM140.571 14.912C141.787 14.912 142.731 15.648 142.795 16.848H138.315C138.491 15.68 139.403 14.912 140.571 14.912ZM151.566 16.208C151.566 16.688 151.294 16.928 150.766 16.928H149.71C148.206 16.928 146.158 17.552 146.158 19.536V19.632C146.158 20.368 146.43 20.976 146.974 21.44C147.518 21.904 148.206 22.144 149.038 22.144C150.19 22.144 151.022 21.712 151.55 20.832V22H153.422V16.56C153.422 15.968 153.326 15.456 153.134 15.024C152.606 13.856 151.534 13.28 149.934 13.28C148.19 13.28 146.974 14 146.302 15.456L147.758 16.288C148.19 15.376 148.91 14.928 149.886 14.928C150.958 14.928 151.566 15.504 151.566 16.208ZM151.55 18.544C151.55 19.824 150.718 20.624 149.422 20.624C148.606 20.624 148.062 20.16 148.062 19.456C148.062 19.088 148.238 18.8 148.574 18.592C148.926 18.384 149.31 18.272 149.71 18.272H151.55V18.544ZM155.793 13.456V18.704C155.793 20.752 156.929 22.176 158.993 22.176C160.081 22.176 160.945 21.728 161.601 20.848V22H163.457V13.456H161.553V18.208C161.553 19.504 160.785 20.368 159.585 20.368C158.321 20.368 157.697 19.52 157.697 18.24V13.456H155.793ZM170.67 15.168V13.456H168.574V10.816H166.67V13.456H165.102V15.168H166.67V19.248C166.67 21.104 167.758 22.096 169.63 22.096C169.998 22.096 170.35 22.032 170.654 21.92V20.304C170.446 20.352 170.238 20.368 170.046 20.368C169.07 20.368 168.574 19.968 168.574 18.944V15.168H170.67ZM173.823 13.456H171.647L175.455 21.04L173.103 26.208H175.135L181.007 13.456H178.943L176.479 19.056L173.823 13.456Z" fill="#1A162E"/>
</svg>
